<?xml version="1.0" encoding="UTF-8" standalone="no"?>
<!-- Created with Inkscape (http://www.inkscape.org/) -->

<svg
   xmlns:dc="http://purl.org/dc/elements/1.1/"
   xmlns:cc="http://creativecommons.org/ns#"
   xmlns:rdf="http://www.w3.org/1999/02/22-rdf-syntax-ns#"
   xmlns:svg="http://www.w3.org/2000/svg"
   xmlns="http://www.w3.org/2000/svg"
   xmlns:sodipodi="http://sodipodi.sourceforge.net/DTD/sodipodi-0.dtd"
   xmlns:inkscape="http://www.inkscape.org/namespaces/inkscape"
   width="210mm"
   height="297mm"
   viewBox="0 0 210 297"
   version="1.1"
   id="svg8"
   inkscape:version="0.92.1 r"
   sodipodi:docname="health_indicator.svg"
   inkscape:export-filename="/home/josh/android/ace/assets_local/health_indicator.png"
   inkscape:export-xdpi="42.787376"
   inkscape:export-ydpi="42.787376">
  <defs
     id="defs2">
    <marker
       inkscape:isstock="true"
       style="overflow:visible"
       id="Arrow1Lstart"
       refX="0.0"
       refY="0.0"
       orient="auto"
       inkscape:stockid="Arrow1Lstart">
      <path
         transform="scale(0.8) translate(12.5,0)"
         style="fill-rule:evenodd;stroke:#ffffff;stroke-width:1pt;stroke-opacity:1;fill:#c33e32;fill-opacity:1"
         d="M 0.0,0.0 L 5.0,-5.0 L -12.5,0.0 L 5.0,5.0 L 0.0,0.0 z "
         id="path4145" />
    </marker>
  </defs>
  <sodipodi:namedview
     id="base"
     pagecolor="#ffffff"
     bordercolor="#666666"
     borderopacity="1.0"
     inkscape:pageopacity="0.0"
     inkscape:pageshadow="2"
     inkscape:zoom="1"
     inkscape:cx="332.51895"
     inkscape:cy="742.12409"
     inkscape:document-units="mm"
     inkscape:current-layer="layer1"
     showgrid="false"
     inkscape:snap-nodes="false"
     inkscape:window-width="1918"
     inkscape:window-height="1042"
     inkscape:window-x="0"
     inkscape:window-y="18"
     inkscape:window-maximized="0" />
  <metadata
     id="metadata5">
    <rdf:RDF>
      <cc:Work
         rdf:about="">
        <dc:format>image/svg+xml</dc:format>
        <dc:type
           rdf:resource="http://purl.org/dc/dcmitype/StillImage" />
        <dc:title />
      </cc:Work>
    </rdf:RDF>
  </metadata>
  <g
     inkscape:label="Layer 1"
     inkscape:groupmode="layer"
     id="layer1">
    <path
       style="fill:#a5a7a9;fill-opacity:1;stroke:none;stroke-width:0;stroke-linejoin:miter;stroke-miterlimit:4;stroke-dasharray:none;stroke-opacity:1"
       id="path7307"
       sodipodi:type="arc"
       sodipodi:cx="-99.257843"
       sodipodi:cy="-30.690302"
       sodipodi:rx="47.998219"
       sodipodi:ry="47.998219"
       sodipodi:start="1.5707963"
       sodipodi:end="3.1415927"
       d="M -99.257842,17.307917 A 47.998219,47.998219 0 0 1 -133.19771,3.2495636 47.998219,47.998219 0 0 1 -147.25606,-30.690304 l 47.998217,2e-6 z"
       transform="matrix(-0.76537794,-0.64358108,0.76537794,-0.64358108,0,0)"
       inkscape:export-xdpi="21.393738"
       inkscape:export-ydpi="21.393738" />
    <circle
       style="fill:#a5a7a9;fill-opacity:1;stroke:none;stroke-width:0;stroke-miterlimit:4;stroke-dasharray:none;stroke-opacity:1"
       id="path7305"
       cx="112.24175"
       cy="83.632439"
       r="38.629356"
       inkscape:export-xdpi="21.393738"
       inkscape:export-ydpi="21.393738" />
    <g
       id="g4560" />
    <g
       id="g5375"
       transform="matrix(1.0251682,0,0,1.0251682,-0.7358773,-3.970127)"
       style="stroke-width:0.97544968">
      <rect
         transform="matrix(0.66600352,0.7459486,-0.74238094,0.66997801,0,0)"
         y="-30.342154"
         x="121.90485"
         height="10.088456"
         width="31.707434"
         id="rect4633"
         style="fill:#f9ffff;fill-opacity:1;fill-rule:evenodd;stroke:none;stroke-width:1.17054796;stroke-miterlimit:4;stroke-dasharray:none;stroke-dashoffset:0;stroke-opacity:1" />
      <path
         inkscape:connector-curvature="0"
         id="path4615"
         d="m 105.41698,65.238039 a 7.4619006,9.9073881 47.697129 0 0 -7.757544,-1.564004 l 4.523414,5.056662 -7.678453,6.919938 -4.525882,-5.059368 a 7.4619006,9.9073881 47.697129 0 0 0.719199,7.912 7.4619006,9.9073881 47.697129 0 0 12.334636,-1.071118 7.4619006,9.9073881 47.697129 0 0 2.38461,-12.194084 z"
         style="fill:#f9ffff;fill-opacity:1;fill-rule:evenodd;stroke:none;stroke-width:1.17053962;stroke-miterlimit:4;stroke-dasharray:none;stroke-dashoffset:0;stroke-opacity:1" />
      <path
         style="fill:#f9ffff;fill-opacity:1;fill-rule:evenodd;stroke:none;stroke-width:1.17053962;stroke-miterlimit:4;stroke-dasharray:none;stroke-dashoffset:0;stroke-opacity:1"
         d="m 129.71272,92.397838 a 7.4619006,9.9073881 47.697129 0 1 0.71675,7.909262 l -4.52346,-5.056607 -7.6785,6.919897 4.52589,5.05937 a 7.4619006,9.9073881 47.697129 0 1 -7.75999,-1.56675 7.4619006,9.9073881 47.697129 0 1 2.38461,-12.194083 7.4619006,9.9073881 47.697129 0 1 12.33464,-1.071104 z"
         id="path4657"
         inkscape:connector-curvature="0" />
    </g>
  </g>
</svg>
