<?xml version="1.0" encoding="UTF-8" standalone="no"?>
<!-- Created with Inkscape (http://www.inkscape.org/) -->

<svg
   xmlns:dc="http://purl.org/dc/elements/1.1/"
   xmlns:cc="http://creativecommons.org/ns#"
   xmlns:rdf="http://www.w3.org/1999/02/22-rdf-syntax-ns#"
   xmlns:svg="http://www.w3.org/2000/svg"
   xmlns="http://www.w3.org/2000/svg"
   xmlns:sodipodi="http://sodipodi.sourceforge.net/DTD/sodipodi-0.dtd"
   xmlns:inkscape="http://www.inkscape.org/namespaces/inkscape"
   width="297mm"
   height="210mm"
   viewBox="0 0 1052.3622 744.09448"
   id="svg21221"
   version="1.1"
   inkscape:version="0.91 r13725"
   sodipodi:docname="p38.svg"
   inkscape:export-filename="/home/josh/android/ace/assets_local/p38.png"
   inkscape:export-xdpi="22.008707"
   inkscape:export-ydpi="22.008707">
  <defs
     id="defs21223" />
  <sodipodi:namedview
     id="base"
     pagecolor="#ffffff"
     bordercolor="#666666"
     borderopacity="1.0"
     inkscape:pageopacity="0.0"
     inkscape:pageshadow="2"
     inkscape:zoom="0.70710678"
     inkscape:cx="373.50875"
     inkscape:cy="501.55122"
     inkscape:document-units="px"
     inkscape:current-layer="svg21221"
     showgrid="false"
     inkscape:window-width="1920"
     inkscape:window-height="1015"
     inkscape:window-x="0"
     inkscape:window-y="0"
     inkscape:window-maximized="1" />
  <metadata
     id="metadata21226">
    <rdf:RDF>
      <cc:Work
         rdf:about="">
        <dc:format>image/svg+xml</dc:format>
        <dc:type
           rdf:resource="http://purl.org/dc/dcmitype/StillImage" />
        <dc:title></dc:title>
      </cc:Work>
    </rdf:RDF>
  </metadata>
  <g
     inkscape:label="Layer 1"
     inkscape:groupmode="layer"
     id="layer1"
     transform="translate(0,-308.26772)" />
  <path
     style="fill:#6e93af;fill-opacity:1;fill-rule:evenodd;stroke:#000000;stroke-width:3.29999995;stroke-linecap:butt;stroke-linejoin:miter;stroke-miterlimit:4;stroke-dasharray:none;stroke-opacity:1"
     d="M 614.74861,240.87011 833.49027,227.87259 615.99855,212.87545"
     id="path23222"
     inkscape:connector-curvature="0"
     inkscape:export-xdpi="90"
     inkscape:export-ydpi="90" />
  <path
     style="fill:#5d6f97;fill-opacity:1;fill-rule:evenodd;stroke:#000000;stroke-width:3.29999995;stroke-linecap:butt;stroke-linejoin:miter;stroke-miterlimit:4;stroke-dasharray:none;stroke-opacity:1"
     d="m 474.55593,250.84301 143.00808,-7.00057 0,-33.00273 -149.364,-7.00058"
     id="path23220"
     inkscape:connector-curvature="0"
     inkscape:export-xdpi="90"
     inkscape:export-ydpi="90" />
  <path
     style="fill:#6e93af;fill-opacity:1;fill-rule:evenodd;stroke:#000000;stroke-width:3.29999995;stroke-linecap:butt;stroke-linejoin:miter;stroke-miterlimit:4;stroke-dasharray:none;stroke-opacity:1"
     d="M 616.46453,492.33524 833.2055,505.33337 617.70305,520.3312"
     id="path23222-5"
     inkscape:connector-curvature="0"
     inkscape:export-xdpi="90"
     inkscape:export-ydpi="90" />
  <path
     style="fill:#5d6f97;fill-opacity:1;fill-rule:evenodd;stroke:#000000;stroke-width:3.29999995;stroke-linecap:butt;stroke-linejoin:miter;stroke-miterlimit:4;stroke-dasharray:none;stroke-opacity:1"
     d="m 476.9394,482.36299 143.00808,7.00058 0,33.00272 -149.364,7.00058"
     id="path23220-7"
     inkscape:connector-curvature="0"
     inkscape:export-xdpi="90"
     inkscape:export-ydpi="90" />
  <path
     style="fill:none;fill-rule:evenodd;stroke:#000000;stroke-width:3.29999995;stroke-linecap:butt;stroke-linejoin:miter;stroke-miterlimit:4;stroke-dasharray:none;stroke-opacity:1"
     d="m 249.54515,374.56584 1.54679,1.81197"
     id="path23218"
     inkscape:connector-curvature="0"
     inkscape:export-xdpi="90"
     inkscape:export-ydpi="90" />
  <path
     style="fill:#6e93af;fill-opacity:1;fill-rule:evenodd;stroke:#000000;stroke-width:3.29999995;stroke-linecap:butt;stroke-linejoin:miter;stroke-miterlimit:4;stroke-dasharray:none;stroke-opacity:1"
     d="M 498.82319,371.95486 434.33392,16.14093 c 0,0 2.24589,-3.52927 -11.87116,-12.192 -20.85474,-6.73769 -47.80548,208.86823 -47.80548,208.86823 0,0 -83.09811,-2.88758 -82.45643,13.15452 0.64169,16.04211 76.68125,24.70485 76.68125,24.70485 3.85011,-1.28337 1.92506,11.55032 1.92506,11.55032 l -14.75874,82.77727 c 0,0 -102.72857,-1.15153 -106.22857,29.84847"
     id="path23201"
     inkscape:connector-curvature="0"
     inkscape:export-xdpi="90"
     inkscape:export-ydpi="90" />
  <path
     style="fill:#6e93af;fill-opacity:1;fill-rule:evenodd;stroke:#000000;stroke-width:3.29999995;stroke-linecap:butt;stroke-linejoin:miter;stroke-miterlimit:4;stroke-dasharray:none;stroke-opacity:1"
     d="m 498.82202,370.7149 -64.48927,355.81393 c 0,0 2.24589,3.52927 -11.87116,12.192 -20.85474,6.73769 -47.80549,-208.86823 -47.80549,-208.86823 0,0 -83.09811,2.88758 -82.45643,-13.15452 0.64169,-16.04211 76.68125,-24.70485 76.68125,-24.70485 3.85011,1.28337 1.92506,-11.55032 1.92506,-11.55032 l -14.75874,-82.77727 c 0,0 -88.72739,0.62629 -105.72739,-23.37371"
     id="path23201-6"
     inkscape:connector-curvature="0"
     inkscape:export-xdpi="90"
     inkscape:export-ydpi="90" />
  <ellipse
     style="fill:#000000;fill-opacity:1;fill-rule:evenodd;stroke:#000000;stroke-width:3.29999995;stroke-miterlimit:4;stroke-dasharray:none;stroke-opacity:1"
     id="path23326"
     cx="-371.883"
     cy="384.18234"
     rx="23.250443"
     ry="63.481564"
     inkscape:export-xdpi="90"
     inkscape:export-ydpi="90"
     transform="matrix(0,-1,1,0,0,0)" />
  <rect
     style="fill:#5d6f97;fill-opacity:1;stroke:#000000;stroke-width:3.29999995;stroke-miterlimit:4;stroke-dasharray:none;stroke-opacity:1"
     id="rect23250"
     width="443.10089"
     height="63.100891"
     x="-592.90302"
     y="753.64935"
     ry="31.550446"
     inkscape:export-xdpi="90"
     inkscape:export-ydpi="90"
     transform="matrix(0,-1,1,0,0,0)" />
  <path
     style="fill:none;fill-rule:evenodd;stroke:#000000;stroke-width:3.29999995;stroke-linecap:butt;stroke-linejoin:miter;stroke-miterlimit:4;stroke-dasharray:none;stroke-opacity:1"
     d="m 374.68356,530.91509 -5.8125,-38.0625"
     id="path23595"
     inkscape:connector-curvature="0"
     inkscape:export-xdpi="90"
     inkscape:export-ydpi="90" />
  <path
     style="fill:none;fill-rule:evenodd;stroke:#000000;stroke-width:3.29999995;stroke-linecap:butt;stroke-linejoin:miter;stroke-miterlimit:4;stroke-dasharray:none;stroke-opacity:1"
     d="m 374.57806,212.6843 -5.3033,37.96279"
     id="path23597"
     inkscape:connector-curvature="0"
     inkscape:export-xdpi="90"
     inkscape:export-ydpi="90" />
  <path
     style="fill:#5d6f97;fill-opacity:1;fill-rule:evenodd;stroke:#000000;stroke-width:3.29999995;stroke-miterlimit:4;stroke-dasharray:none;stroke-opacity:1"
     d="m 358.87003,529.26621 c -35.56878,-0.002 -57.63677,-3.03713 -64.24106,-8.83577 -2.79469,-2.45377 -2.62438,-4.75188 0.58938,-7.95305 5.90511,-5.88196 23.14054,-11.46829 50.10062,-16.23855 9.66624,-1.71033 22.33235,-3.4649 22.62698,-3.13441 0.13577,0.15229 1.38964,7.8341 2.7864,17.07068 1.39676,9.23658 2.62918,17.31086 2.73872,17.94283 l 0.19916,1.14905 -14.8002,-7.8e-4 z"
     id="path23599"
     inkscape:connector-curvature="0"
     inkscape:export-xdpi="90"
     inkscape:export-ydpi="90" />
  <path
     style="fill:#5d6f97;fill-opacity:1;fill-rule:evenodd;stroke:#000000;stroke-width:3.29999995;stroke-miterlimit:4;stroke-dasharray:none;stroke-opacity:1"
     d="m 371.23739,231.75377 c -1.3873,9.75715 -2.62346,17.8397 -2.74701,17.96122 -0.44339,0.43612 -19.06071,-2.3797 -30.43706,-4.60353 -22.17775,-4.33526 -37.36059,-9.62465 -42.58497,-14.83572 -2.42274,-2.41656 -3.01286,-3.95931 -2.23387,-5.83995 2.0945,-5.05657 15.20464,-8.57871 38.18065,-10.25752 10.51993,-0.76867 42.50166,-1.07105 42.38553,-0.40075 -0.0225,0.12978 -1.17596,8.21909 -2.56327,17.97625 z"
     id="path23601"
     inkscape:connector-curvature="0"
     inkscape:export-xdpi="90"
     inkscape:export-ydpi="90" />
  <path
     style="fill:none;fill-rule:evenodd;stroke:#000000;stroke-width:3.29999995;stroke-linecap:butt;stroke-linejoin:miter;stroke-miterlimit:4;stroke-dasharray:none;stroke-opacity:0.74117647"
     d="m 355.66296,397.7253 44.90128,-3.18198"
     id="path23673"
     inkscape:connector-curvature="0" />
  <path
     style="fill:none;fill-rule:evenodd;stroke:#000000;stroke-width:3.29999995;stroke-linecap:butt;stroke-linejoin:miter;stroke-miterlimit:4;stroke-dasharray:none;stroke-opacity:0.74117647"
     d="m 355.77731,345.10259 47,5"
     id="path23681"
     inkscape:connector-curvature="0" />
  <path
     style="fill:none;fill-rule:evenodd;stroke:#000000;stroke-width:3.29999995;stroke-linecap:butt;stroke-linejoin:miter;stroke-miterlimit:4;stroke-dasharray:none;stroke-opacity:0.74117647"
     d="m 404.93237,350.10259 c 0,0 49.75,4.75 93.25,21.25"
     id="path23700"
     inkscape:connector-curvature="0" />
  <path
     style="fill:none;fill-rule:evenodd;stroke:#000000;stroke-width:3.29999995;stroke-linecap:butt;stroke-linejoin:miter;stroke-miterlimit:4;stroke-dasharray:none;stroke-opacity:0.74117647"
     d="m 404.93237,394.21247 c 0,0 49.75,-4.75 93.25,-21.25"
     id="path23700-5"
     inkscape:connector-curvature="0" />
  <g
     id="g23757"
     style="stroke:#000000;stroke-width:3.29999995;stroke-miterlimit:4;stroke-dasharray:none;stroke-opacity:0.74117647"
     transform="matrix(0,-1,1,0,170.18283,912.85259)">
    <path
       inkscape:connector-curvature="0"
       id="path23671"
       d="m 201.26027,266.02401 0.0884,-29.78687"
       style="fill:none;fill-rule:evenodd;stroke:#000000;stroke-width:3.29999995;stroke-linecap:butt;stroke-linejoin:miter;stroke-miterlimit:4;stroke-dasharray:none;stroke-opacity:0.74117647" />
    <path
       inkscape:connector-curvature="0"
       id="path23671-6"
       d="m 882.6677,266.02401 0.0884,-29.78687"
       style="fill:none;fill-rule:evenodd;stroke:#000000;stroke-width:3.29999995;stroke-linecap:butt;stroke-linejoin:miter;stroke-miterlimit:4;stroke-dasharray:none;stroke-opacity:0.74117647" />
    <path
       inkscape:connector-curvature="0"
       id="path23732"
       d="m 202.14959,256.49932 326.68333,33.23402"
       style="fill:none;fill-rule:evenodd;stroke:#000000;stroke-width:3.29999995;stroke-linecap:butt;stroke-linejoin:miter;stroke-miterlimit:4;stroke-dasharray:none;stroke-opacity:0.74117647" />
    <path
       inkscape:connector-curvature="0"
       id="path23732-2"
       d="M 880.83292,256.49932 554.14958,289.73334"
       style="fill:none;fill-rule:evenodd;stroke:#000000;stroke-width:3.29999995;stroke-linecap:butt;stroke-linejoin:miter;stroke-miterlimit:4;stroke-dasharray:none;stroke-opacity:0.74117647" />
    <path
       inkscape:connector-curvature="0"
       id="path23751"
       d="m 201,243.09448 682,0"
       style="fill:none;fill-rule:evenodd;stroke:#000000;stroke-width:3.29999995;stroke-linecap:butt;stroke-linejoin:miter;stroke-miterlimit:4;stroke-dasharray:none;stroke-opacity:0.74117647" />
    <path
       inkscape:connector-curvature="0"
       id="path23753"
       d="m 880.48052,256.50016 1.98874,-0.22097"
       style="fill:none;fill-rule:evenodd;stroke:#000000;stroke-width:3.29999995;stroke-linecap:butt;stroke-linejoin:miter;stroke-miterlimit:4;stroke-dasharray:none;stroke-opacity:0.74117647" />
  </g>
  <path
     style="fill:none;fill-rule:evenodd;stroke:#000000;stroke-width:3.29999995;stroke-linecap:butt;stroke-linejoin:miter;stroke-miterlimit:4;stroke-dasharray:none;stroke-opacity:1"
     d="m 435.16827,30.25075 1.72358,0"
     id="path23755"
     inkscape:connector-curvature="0"
     inkscape:export-xdpi="90"
     inkscape:export-ydpi="90" />
</svg>
